# xmcd
#
# Track frame offsets: 
#        150
#        12662
#        24222
#        38012
#        51435
#        65011
#        77980
#        91388
#        104890
#        117450
#        131137
#        143511
#        158015
#        172476
#        187123
#        200296
#        213542
#        227436
#        242650
#        257627
#        272141
#
# Disc length: 3819 seconds
#
# Revision: 0
# Processed by: cddbd v1.5.2PL0 Copyright (c) Steve Scherf et al.
# Submitted via: ExactAudioCopyFreeDBPlugin 1.0
#
DISCID=3a0ee915
DTITLE=Billie Holiday - The Complete Masters CD1
DYEAR=1900
DGENRE=
TTITLE0=Your Mothers Son in Law
TTITLE1=Riffin the Scotch
TTITLE2=I Wished on The Moon
TTITLE3=What a Little Moonlight Can Do
TTITLE4=Miss Brown to You
TTITLE5=A Sunbonnet Blue (and a Yellow Straw Hat)
TTITLE6=What a Night, What a Moon, What a Girl
TTITLE7=Im Painting the Town in Red
TTITLE8=It's Too Hot for Words
TTITLE9=Twenty-Four Hours a Day
TTITLE10=Yankee Doodle Never Went to Town
TTITLE11=Eeny Meeny Miney Mo
TTITLE12=If You Were Mine
TTITLE13=These 'n' That 'n' Those
TTITLE14=Your Let Me Down
TTITLE15=Spreadin' Rhythm Around
TTITLE16=Life Begins When You're in Love
TTITLE17=It's Like Reaching for the Moon
TTITLE18=These Foolish Things
TTITLE19=I Cried For You 
TTITLE20=Guess Who
EXTD=
EXTT0=
EXTT1=
EXTT2=
EXTT3=
EXTT4=
EXTT5=
EXTT6=
EXTT7=
EXTT8=
EXTT9=
EXTT10=
EXTT11=
EXTT12=
EXTT13=
EXTT14=
EXTT15=
EXTT16=
EXTT17=
EXTT18=
EXTT19=
EXTT20=
PLAYORDER=
